<?xml version="1.0" encoding="UTF-8" standalone="no"?>
<!-- Created with Inkscape (http://www.inkscape.org/) -->

<svg
   width="3000"
   height="3000"
   viewBox="0 0 793.75 793.75001"
   version="1.1"
   id="svg21"
   sodipodi:docname="builder-regular.svg"
   inkscape:version="1.3.2 (091e20e, 2023-11-25)"
   inkscape:export-filename="logo-export/logo-regular.png"
   inkscape:export-xdpi="96"
   inkscape:export-ydpi="96"
   xml:space="preserve"
   xmlns:inkscape="http://www.inkscape.org/namespaces/inkscape"
   xmlns:sodipodi="http://sodipodi.sourceforge.net/DTD/sodipodi-0.dtd"
   xmlns:xlink="http://www.w3.org/1999/xlink"
   xmlns="http://www.w3.org/2000/svg"
   xmlns:svg="http://www.w3.org/2000/svg"><sodipodi:namedview
     id="namedview1"
     pagecolor="#ffffff"
     bordercolor="#000000"
     borderopacity="0.25"
     inkscape:showpageshadow="2"
     inkscape:pageopacity="0.0"
     inkscape:pagecheckerboard="0"
     inkscape:deskcolor="#d1d1d1"
     inkscape:document-units="mm"
     inkscape:zoom="0.1767767"
     inkscape:cx="288.49957"
     inkscape:cy="1247.3364"
     inkscape:window-width="1920"
     inkscape:window-height="1011"
     inkscape:window-x="0"
     inkscape:window-y="32"
     inkscape:window-maximized="1"
     inkscape:current-layer="g2" /><defs
     id="defs18"><linearGradient
       id="linearGradient17478"><stop
         style="stop-color:#238cb2;stop-opacity:1;"
         offset="0"
         id="stop17474" /><stop
         style="stop-color:#0e6887;stop-opacity:1;"
         offset="1"
         id="stop17476" /></linearGradient><linearGradient
       xlink:href="#linearGradient17478"
       id="linearGradient17480"
       x1="77.937965"
       y1="128.93855"
       x2="98.420181"
       y2="128.93855"
       gradientUnits="userSpaceOnUse" /><linearGradient
       xlink:href="#linearGradient17478"
       id="linearGradient24971"
       gradientUnits="userSpaceOnUse"
       x1="77.937965"
       y1="128.93855"
       x2="98.420181"
       y2="128.93855"
       gradientTransform="matrix(97.655636,0,0,97.655636,-7443.4248,-11383.977)" /><linearGradient
       xlink:href="#linearGradient17478"
       id="linearGradient24971-3"
       gradientUnits="userSpaceOnUse"
       x1="77.937965"
       y1="128.93855"
       x2="98.420181"
       y2="128.93855"
       gradientTransform="matrix(35.56279,0,0,35.56279,-2739.0189,-4188.5401)" /><linearGradient
       id="linearGradient17478-7"><stop
         style="stop-color:#124d62;stop-opacity:1;"
         offset="0"
         id="stop17474-0" /><stop
         style="stop-color:#08607c;stop-opacity:1;"
         offset="1"
         id="stop17476-9" /></linearGradient><linearGradient
       xlink:href="#linearGradient17478-7"
       id="linearGradient17480-3"
       x1="77.937965"
       y1="128.93855"
       x2="98.420181"
       y2="128.93855"
       gradientUnits="userSpaceOnUse"
       gradientTransform="matrix(97.655102,0,0,97.655102,32.674536,-8.7998852e-4)" /></defs><g
     id="layer4-3"
     transform="matrix(0.36416528,0,0,0.36416528,-28.382301,-42.89092)"
     style="display:inline;fill:url(#linearGradient17480);fill-opacity:1"
     inkscape:label="regular"><path
       id="path17486-7-5"
       style="color:#000000;fill:url(#linearGradient24971);fill-opacity:1;stroke:none;stroke-width:156.866;stroke-linecap:round;stroke-linejoin:round;-inkscape-stroke:none;paint-order:markers fill stroke"
       d="m 1167.784,117.77872 a 78.440947,78.440947 0 0 0 -58.9431,26.69613 C 1014.661,251.54937 901.2486,356.62585 769.91836,409.81985 638.59008,463.0119 489.63105,471.1808 294.2358,374.34253 A 78.440947,78.440947 0 0 0 181.09393,441.25911 C 167.65651,768.56466 92.566162,1392.6077 522.6914,1890.2588 c 192.5525,222.7849 422.72877,321.2577 614.9658,401.1458 a 78.440947,78.440947 0 0 0 60.2545,0 c 192.2391,-79.8891 422.3607,-178.3601 614.9161,-401.1458 430.1233,-497.6511 355.0339,-1121.69608 341.5965,-1448.99969 A 78.440947,78.440947 0 0 0 2041.131,374.34253 c -195.3971,96.83827 -344.3513,88.66937 -475.6825,35.47732 -131.3302,-53.194 -244.5395,-158.27048 -338.7215,-265.345 a 78.440947,78.440947 0 0 0 -58.943,-26.69613 z m 241.5258,707.46821 a 80.289754,80.289754 0 0 1 47.6384,12.56536 l 472.453,302.13381 a 80.289754,80.289754 0 0 1 -0.1953,135.3976 l -473.411,300.9728 a 80.281724,80.281724 0 0 1 -110.8216,-24.576 80.281724,80.281724 0 0 1 24.6268,-110.8216 l 367.3346,-233.5006 -306.1201,-195.8552 -446.71596,548.9078 a 80.289754,80.289754 0 0 1 -105.47198,17.0067 l -472.65427,-302.336 a 80.289754,80.289754 0 0 1 0.19535,-135.1955 L 879.57885,838.77126 a 80.281724,80.281724 0 0 1 110.82156,24.77817 80.281724,80.281724 0 0 1 -24.62681,110.82158 l -367.13244,233.45069 306.12015,195.905 446.71589,-549.15964 a 80.289754,80.289754 0 0 1 57.8326,-29.32013 z"
       inkscape:label="logo" /></g><g
     id="g1"
     transform="matrix(0.36416528,0,0,0.36416528,-28.382301,-42.890919)"
     style="display:none;fill:url(#linearGradient17480);fill-opacity:1"
     inkscape:label="white"><path
       id="path17486-7-5-3"
       style="color:#000000;display:inline;fill:#f1fafe;fill-opacity:1;stroke:none;stroke-width:57.1251;stroke-linecap:round;stroke-linejoin:round;-inkscape-stroke:none;paint-order:markers fill stroke"
       d="M 396.88409,-2.7290727e-7 A 28.565467,28.565467 0 0 0 375.41906,9.7217897 C 341.12202,48.71461 299.82117,86.97982 251.99524,106.35123 204.17004,125.72192 149.92434,128.69674 78.768159,93.43162 a 28.565467,28.565467 0 0 0 -41.20234,24.36871 C 32.672389,236.99362 5.3270794,464.2484 161.96377,645.47569 232.08471,726.6062 315.90693,762.46658 385.91296,791.55908 a 28.565467,28.565467 0 0 0 21.94258,0 c 70.0068,-29.0929 153.8091,-64.95259 223.93109,-146.08339 C 788.42264,464.2484 761.07766,236.99294 756.18424,117.80033 A 28.565467,28.565467 0 0 0 714.92676,93.43162 C 643.7699,128.69674 589.52598,125.72192 541.69968,106.35123 493.87378,86.97982 452.64691,48.71461 418.34905,9.7217897 A 28.565467,28.565467 0 0 0 396.88409,-2.7290727e-7 Z M 484.8394,257.63536 a 29.238739,29.238739 0 0 1 17.34825,4.57586 L 674.2386,372.23783 A 29.238739,29.238739 0 0 1 674.1675,421.545 L 501.7676,531.14878 a 29.235813,29.235813 0 0 1 -40.35737,-8.94969 29.235813,29.235813 0 0 1 8.96826,-40.35738 L 604.14897,396.80889 492.67064,325.48521 329.99221,525.37837 a 29.238739,29.238739 0 0 1 -38.40922,6.19324 L 119.45868,421.47139 a 29.238739,29.238739 0 0 1 0.0711,-49.23356 l 172.3999,-109.67736 a 29.235813,29.235813 0 0 1 40.35737,9.02332 29.235813,29.235813 0 0 1 -8.96821,40.35735 L 189.62195,396.95579 301.10029,468.29761 463.7787,268.31272 a 29.238739,29.238739 0 0 1 21.06062,-10.67736 z"
       inkscape:label="logo"
       transform="matrix(2.7460059,0,0,2.7460059,77.937965,117.77872)" /></g><g
     id="g2"
     transform="matrix(0.36416528,0,0,0.36416528,-28.382301,-42.890919)"
     style="display:none;fill:url(#linearGradient17480);fill-opacity:1"
     inkscape:label="dark"><path
       id="path17486-7-5-0"
       style="color:#000000;fill:url(#linearGradient17480-3);fill-opacity:1;stroke:none;stroke-width:57.1249;stroke-linecap:round;stroke-linejoin:round;-inkscape-stroke:none;paint-order:markers fill stroke"
       d="M 396.88413,-9.8852025e-7 A 28.565314,28.565314 0 0 0 375.41924,9.726444 C 341.12228,48.719149 299.82169,86.983359 251.99598,106.35519 204.17105,125.72606 149.9257,128.70065 78.769894,93.435421 A 28.565314,28.565314 0 0 0 37.56783,117.80428 C 32.674332,236.99722 5.3292415,464.25042 161.96501,645.47683 232.08557,726.60674 315.90734,762.46667 385.91308,791.5591 a 28.565314,28.565314 0 0 0 21.94242,0 C 477.8619,762.46667 561.66375,726.60674 631.78539,645.47683 788.42047,464.25042 761.07568,236.99625 756.18227,117.80428 A 28.565314,28.565314 0 0 0 714.92504,93.435421 C 643.76855,128.70065 589.52495,125.72606 541.69895,106.35519 493.87324,86.983359 452.64667,48.719149 418.34902,9.726444 A 28.565314,28.565314 0 0 0 396.88413,-9.8852025e-7 Z M 484.83897,257.63469 a 29.238582,29.238582 0 0 1 17.34812,4.58002 l 172.05006,110.02605 a 29.238582,29.238582 0 0 1 -0.0711,49.30704 L 501.76707,531.15102 a 29.23566,29.23566 0 0 1 -40.35714,-8.94522 29.23566,29.23566 0 0 1 8.96865,-40.35792 L 604.14836,396.81567 492.67065,325.49228 329.99307,525.38447 a 29.238582,29.238582 0 0 1 -38.40903,6.19134 L 119.46073,421.47652 a 29.238582,29.238582 0 0 1 0.0711,-49.2338 L 291.93081,262.56626 a 29.23566,29.23566 0 0 1 40.35715,9.02334 29.23566,29.23566 0 0 1 -8.96865,40.35695 l -133.69619,85.01462 111.47771,71.34097 162.67758,-199.98399 a 29.238582,29.238582 0 0 1 21.06049,-10.67663 z"
       inkscape:label="logo"
       transform="matrix(2.7460059,0,0,2.7460059,77.937965,117.77872)" /></g></svg>
